<svg width="164" height="150" viewBox="0 0 164 150" fill="none" xmlns="http://www.w3.org/2000/svg">
<ellipse cx="82" cy="75" rx="82" ry="75" fill="#462314"/>
<path d="M41.2926 64.4119C41.1316 63.8153 40.8949 63.2898 40.5824 62.8352C40.2699 62.3712 39.8864 61.9782 39.4318 61.6562C38.9773 61.3343 38.4564 61.0928 37.8693 60.9318C37.2822 60.7614 36.6383 60.6761 35.9375 60.6761C34.5265 60.6761 33.3049 61.017 32.2727 61.6989C31.25 62.3807 30.4593 63.375 29.9006 64.6818C29.3419 65.9792 29.0625 67.5559 29.0625 69.4119C29.0625 71.2775 29.3324 72.8684 29.8722 74.1847C30.4119 75.5009 31.1932 76.5047 32.2159 77.196C33.2386 77.8873 34.4792 78.233 35.9375 78.233C37.2254 78.233 38.3144 78.0246 39.2045 77.608C40.1042 77.1818 40.786 76.5805 41.25 75.804C41.714 75.0275 41.946 74.1136 41.946 73.0625L43.2528 73.2188H36.179V68.0909H48.7216V71.9403C48.7216 74.5445 48.1676 76.7746 47.0597 78.6307C45.9612 80.4867 44.446 81.9119 42.5142 82.9062C40.5919 83.9006 38.3807 84.3977 35.8807 84.3977C33.1061 84.3977 30.6676 83.7964 28.5653 82.5938C26.4631 81.3911 24.8248 79.6771 23.6506 77.4517C22.4763 75.2169 21.8892 72.5653 21.8892 69.4972C21.8892 67.1108 22.2443 64.9943 22.9545 63.1477C23.6648 61.2917 24.6544 59.7197 25.9233 58.4318C27.2017 57.1439 28.679 56.1686 30.3551 55.5057C32.0407 54.8428 33.8542 54.5114 35.7955 54.5114C37.4811 54.5114 39.0483 54.7528 40.4972 55.2358C41.9555 55.7188 43.2434 56.4006 44.3608 57.2812C45.4877 58.1619 46.4015 59.2083 47.1023 60.4205C47.803 61.6326 48.2386 62.9631 48.4091 64.4119H41.2926Z" fill="#DE6ED7"/>
<path d="M144.233 54.9091V84H137.202V54.9091H144.233Z" fill="#5389D0"/>
<path d="M110.25 60.6193V54.9091H134.838V60.6193H126.017V84H119.085V60.6193H110.25Z" fill="#CCD554"/>
<path d="M83.25 60.6193V54.9091H107.838V60.6193H99.017V84H92.0852V60.6193H83.25Z" fill="#BD4F4F"/>
<path d="M59.4943 84H51.9375L61.7528 54.9091H71.1136L80.929 84H73.3722L66.5398 62.2386H66.3125L59.4943 84ZM58.4858 72.5511H74.2812V77.892H58.4858V72.5511Z" fill="#4865C8"/>
<path d="M35.5 103L36.7348 106.455H40.7308L37.498 108.59L38.7328 112.045L35.5 109.91L32.2672 112.045L33.502 108.59L30.2692 106.455H34.2652L35.5 103Z" fill="#D9D9D9"/>
<path d="M56.5 103L57.7348 106.455H61.7308L58.498 108.59L59.7328 112.045L56.5 109.91L53.2672 112.045L54.502 108.59L51.2692 106.455H55.2652L56.5 103Z" fill="#D9D9D9"/>
<path d="M108.5 124L109.735 127.455H113.731L110.498 129.59L111.733 133.045L108.5 130.91L105.267 133.045L106.502 129.59L103.269 127.455H107.265L108.5 124Z" fill="#D9D9D9"/>
<path d="M140.5 33L141.735 36.4549H145.731L142.498 38.5902L143.733 42.0451L140.5 39.9098L137.267 42.0451L138.502 38.5902L135.269 36.4549H139.265L140.5 33Z" fill="#D9D9D9"/>
<path d="M147.5 88L148.735 91.4549H152.731L149.498 93.5902L150.733 97.0451L147.5 94.9098L144.267 97.0451L145.502 93.5902L142.269 91.4549H146.265L147.5 88Z" fill="#D9D9D9"/>
<path d="M20.5 93L21.7348 96.4549H25.7308L22.498 98.5902L23.7328 102.045L20.5 99.9098L17.2672 102.045L18.502 98.5902L15.2692 96.4549H19.2652L20.5 93Z" fill="#D9D9D9"/>
<path d="M56.5 33L57.7348 36.4549H61.7308L58.498 38.5902L59.7328 42.0451L56.5 39.9098L53.2672 42.0451L54.502 38.5902L51.2692 36.4549H55.2652L56.5 33Z" fill="#D9D9D9"/>
<path d="M20.5 33L21.7348 36.4549H25.7308L22.498 38.5902L23.7328 42.0451L20.5 39.9098L17.2672 42.0451L18.502 38.5902L15.2692 36.4549H19.2652L20.5 33Z" fill="#D9D9D9"/>
<path d="M82.5 8L83.7348 11.4549H87.7308L84.498 13.5902L85.7328 17.0451L82.5 14.9098L79.2672 17.0451L80.502 13.5902L77.2692 11.4549H81.2652L82.5 8Z" fill="#D9D9D9"/>
<path d="M56.5 18L57.7348 21.4549H61.7308L58.498 23.5902L59.7328 27.0451L56.5 24.9098L53.2672 27.0451L54.502 23.5902L51.2692 21.4549H55.2652L56.5 18Z" fill="#D9D9D9"/>
<path d="M56.5 124L57.7348 127.455H61.7308L58.498 129.59L59.7328 133.045L56.5 130.91L53.2672 133.045L54.502 129.59L51.2692 127.455H55.2652L56.5 124Z" fill="#D9D9D9"/>
<path d="M108.5 18L109.735 21.4549H113.731L110.498 23.5902L111.733 27.0451L108.5 24.9098L105.267 27.0451L106.502 23.5902L103.269 21.4549H107.265L108.5 18Z" fill="#D9D9D9"/>
<path d="M108.5 103L109.735 106.455H113.731L110.498 108.59L111.733 112.045L108.5 109.91L105.267 112.045L106.502 108.59L103.269 106.455H107.265L108.5 103Z" fill="#D9D9D9"/>
<path d="M140.5 103L141.735 106.455H145.731L142.498 108.59L143.733 112.045L140.5 109.91L137.267 112.045L138.502 108.59L135.269 106.455H139.265L140.5 103Z" fill="#D9D9D9"/>
<path d="M82.5 129L83.7348 132.455H87.7308L84.498 134.59L85.7328 138.045L82.5 135.91L79.2672 138.045L80.502 134.59L77.2692 132.455H81.2652L82.5 129Z" fill="#D9D9D9"/>
<path d="M108.5 33L109.735 36.4549H113.731L110.498 38.5902L111.733 42.0451L108.5 39.9098L105.267 42.0451L106.502 38.5902L103.269 36.4549H107.265L108.5 33Z" fill="#D9D9D9"/>
</svg>
